M48
;DRILL file {KiCad 4.0.5+dfsg1-4} date Sat Aug 26 21:12:26 2017
;FORMAT={-:-/ absolute / metric / decimal}
FMAT,2
METRIC,TZ
T1C0.400
T2C0.900
T3C1.000
T4C1.200
T5C1.700
T6C4.400
%
G90
G05
M71
T1
X113.5Y-98.25
X141.Y-100.5
X142.Y-101.5
X145.Y-104.
X146.5Y-102.5
X148.75Y-100.75
X149.25Y-98.75
X158.5Y-98.5
X158.5Y-99.5
X171.Y-81.
X171.Y-83.
T2
X112.55Y-110.
X113.82Y-107.46
X115.09Y-110.
X116.36Y-107.46
X117.63Y-110.
X118.9Y-107.46
X120.17Y-110.
X121.44Y-107.46
X132.55Y-110.
X133.82Y-107.46
X135.09Y-110.
X136.36Y-107.46
X137.63Y-110.
X138.9Y-107.46
X140.17Y-110.
X141.44Y-107.46
T3
X98.5Y-89.
X98.5Y-91.
X98.5Y-93.
X98.5Y-95.
X100.5Y-89.
X100.5Y-91.
X100.5Y-93.
X100.5Y-95.
X102.5Y-89.
X102.5Y-91.
X102.5Y-93.
X102.5Y-95.
X104.5Y-89.
X104.5Y-91.
X104.5Y-93.
X104.5Y-95.
X150.19Y-118.
X151.5Y-83.
X152.73Y-118.
X155.Y-83.
X155.27Y-118.
X157.81Y-118.
X158.5Y-83.
X164.38Y-82.22
X164.38Y-84.76
X164.38Y-87.3
X164.38Y-89.84
X164.38Y-92.38
X164.38Y-94.92
X164.38Y-97.46
X164.38Y-100.
X164.38Y-102.54
X164.38Y-105.08
X164.38Y-107.62
X164.38Y-110.16
X164.38Y-112.7
X164.38Y-115.24
X164.38Y-117.78
X179.62Y-82.22
X179.62Y-84.76
X179.62Y-87.3
X179.62Y-89.84
X179.62Y-92.38
X179.62Y-94.92
X179.62Y-97.46
X179.62Y-100.
X179.62Y-102.54
X179.62Y-105.08
X179.62Y-107.62
X179.62Y-110.16
X179.62Y-112.7
X179.62Y-115.24
X179.62Y-117.78
X187.73Y-90.61
X187.73Y-93.15
X187.73Y-95.69
X187.73Y-98.23
X187.73Y-100.77
X187.73Y-103.31
X187.73Y-105.85
X190.27Y-90.61
X190.27Y-93.15
X190.27Y-95.69
X190.27Y-98.23
X190.27Y-100.77
X190.27Y-103.31
X190.27Y-105.85
T4
X110.46Y-87.
X115.54Y-87.
X124.46Y-87.
X129.54Y-87.
X138.46Y-87.
X143.54Y-87.
T5
X109.245Y-119.4
X124.745Y-119.4
X129.245Y-119.4
X144.745Y-119.4
T6
X101.Y-81.
X101.Y-119.
X189.Y-81.
X189.Y-119.
T0
M30
