G04 #@! TF.FileFunction,Legend,Bot*
%FSLAX46Y46*%
G04 Gerber Fmt 4.6, Leading zero omitted, Abs format (unit mm)*
G04 Created by KiCad (PCBNEW 4.0.5+dfsg1-4) date Sat Aug 26 21:12:24 2017*
%MOMM*%
%LPD*%
G01*
G04 APERTURE LIST*
%ADD10C,0.100000*%
%ADD11C,0.300000*%
%ADD12C,0.150000*%
G04 APERTURE END LIST*
D10*
D11*
X149750000Y-121142857D02*
X149678571Y-121000000D01*
X149678571Y-120785714D01*
X149750000Y-120571429D01*
X149892857Y-120428571D01*
X150035714Y-120357143D01*
X150321429Y-120285714D01*
X150535714Y-120285714D01*
X150821429Y-120357143D01*
X150964286Y-120428571D01*
X151107143Y-120571429D01*
X151178571Y-120785714D01*
X151178571Y-120928571D01*
X151107143Y-121142857D01*
X151035714Y-121214286D01*
X150535714Y-121214286D01*
X150535714Y-120928571D01*
X151178571Y-121857143D02*
X149678571Y-121857143D01*
X151178571Y-122714286D01*
X149678571Y-122714286D01*
X151178571Y-123428572D02*
X149678571Y-123428572D01*
X149678571Y-123785715D01*
X149750000Y-124000000D01*
X149892857Y-124142858D01*
X150035714Y-124214286D01*
X150321429Y-124285715D01*
X150535714Y-124285715D01*
X150821429Y-124214286D01*
X150964286Y-124142858D01*
X151107143Y-124000000D01*
X151178571Y-123785715D01*
X151178571Y-123428572D01*
X153678571Y-121214286D02*
X152964286Y-120714286D01*
X153678571Y-120357143D02*
X152178571Y-120357143D01*
X152178571Y-120928571D01*
X152250000Y-121071429D01*
X152321429Y-121142857D01*
X152464286Y-121214286D01*
X152678571Y-121214286D01*
X152821429Y-121142857D01*
X152892857Y-121071429D01*
X152964286Y-120928571D01*
X152964286Y-120357143D01*
X153607143Y-121785714D02*
X153678571Y-122000000D01*
X153678571Y-122357143D01*
X153607143Y-122500000D01*
X153535714Y-122571429D01*
X153392857Y-122642857D01*
X153250000Y-122642857D01*
X153107143Y-122571429D01*
X153035714Y-122500000D01*
X152964286Y-122357143D01*
X152892857Y-122071429D01*
X152821429Y-121928571D01*
X152750000Y-121857143D01*
X152607143Y-121785714D01*
X152464286Y-121785714D01*
X152321429Y-121857143D01*
X152250000Y-121928571D01*
X152178571Y-122071429D01*
X152178571Y-122428571D01*
X152250000Y-122642857D01*
X152178571Y-123071428D02*
X152178571Y-123928571D01*
X153678571Y-123500000D02*
X152178571Y-123500000D01*
X156178571Y-121214286D02*
X155464286Y-120714286D01*
X156178571Y-120357143D02*
X154678571Y-120357143D01*
X154678571Y-120928571D01*
X154750000Y-121071429D01*
X154821429Y-121142857D01*
X154964286Y-121214286D01*
X155178571Y-121214286D01*
X155321429Y-121142857D01*
X155392857Y-121071429D01*
X155464286Y-120928571D01*
X155464286Y-120357143D01*
X156178571Y-121714286D02*
X155178571Y-122500000D01*
X155178571Y-121714286D02*
X156178571Y-122500000D01*
X157178571Y-120142857D02*
X157178571Y-121000000D01*
X158678571Y-120571429D02*
X157178571Y-120571429D01*
X158678571Y-121357143D02*
X157678571Y-122142857D01*
X157678571Y-121357143D02*
X158678571Y-122142857D01*
X125178571Y-77071429D02*
X125178571Y-76357143D01*
X123678571Y-76357143D01*
X124392857Y-77571429D02*
X124392857Y-78071429D01*
X125178571Y-78285715D02*
X125178571Y-77571429D01*
X123678571Y-77571429D01*
X123678571Y-78285715D01*
X125178571Y-78928572D02*
X123678571Y-78928572D01*
X123678571Y-79285715D01*
X123750000Y-79500000D01*
X123892857Y-79642858D01*
X124035714Y-79714286D01*
X124321429Y-79785715D01*
X124535714Y-79785715D01*
X124821429Y-79714286D01*
X124964286Y-79642858D01*
X125107143Y-79500000D01*
X125178571Y-79285715D01*
X125178571Y-78928572D01*
X124607143Y-80428572D02*
X124607143Y-81571429D01*
X125178571Y-81000000D02*
X124035714Y-81000000D01*
X110607143Y-76357143D02*
X110607143Y-77500000D01*
X111178571Y-76928571D02*
X110035714Y-76928571D01*
X111178571Y-79000000D02*
X111178571Y-78142857D01*
X111178571Y-78571429D02*
X109678571Y-78571429D01*
X109892857Y-78428572D01*
X110035714Y-78285714D01*
X110107143Y-78142857D01*
X109821429Y-79571428D02*
X109750000Y-79642857D01*
X109678571Y-79785714D01*
X109678571Y-80142857D01*
X109750000Y-80285714D01*
X109821429Y-80357143D01*
X109964286Y-80428571D01*
X110107143Y-80428571D01*
X110321429Y-80357143D01*
X111178571Y-79500000D01*
X111178571Y-80428571D01*
X109678571Y-80857142D02*
X111178571Y-81357142D01*
X109678571Y-81857142D01*
X130178571Y-77071429D02*
X130178571Y-76357143D01*
X128678571Y-76357143D01*
X129392857Y-77571429D02*
X129392857Y-78071429D01*
X130178571Y-78285715D02*
X130178571Y-77571429D01*
X128678571Y-77571429D01*
X128678571Y-78285715D01*
X130178571Y-78928572D02*
X128678571Y-78928572D01*
X128678571Y-79285715D01*
X128750000Y-79500000D01*
X128892857Y-79642858D01*
X129035714Y-79714286D01*
X129321429Y-79785715D01*
X129535714Y-79785715D01*
X129821429Y-79714286D01*
X129964286Y-79642858D01*
X130107143Y-79500000D01*
X130178571Y-79285715D01*
X130178571Y-78928572D01*
X129607143Y-80428572D02*
X129607143Y-81571429D01*
X114750000Y-77142857D02*
X114678571Y-77000000D01*
X114678571Y-76785714D01*
X114750000Y-76571429D01*
X114892857Y-76428571D01*
X115035714Y-76357143D01*
X115321429Y-76285714D01*
X115535714Y-76285714D01*
X115821429Y-76357143D01*
X115964286Y-76428571D01*
X116107143Y-76571429D01*
X116178571Y-76785714D01*
X116178571Y-76928571D01*
X116107143Y-77142857D01*
X116035714Y-77214286D01*
X115535714Y-77214286D01*
X115535714Y-76928571D01*
X116178571Y-77857143D02*
X114678571Y-77857143D01*
X116178571Y-78714286D01*
X114678571Y-78714286D01*
X116178571Y-79428572D02*
X114678571Y-79428572D01*
X114678571Y-79785715D01*
X114750000Y-80000000D01*
X114892857Y-80142858D01*
X115035714Y-80214286D01*
X115321429Y-80285715D01*
X115535714Y-80285715D01*
X115821429Y-80214286D01*
X115964286Y-80142858D01*
X116107143Y-80000000D01*
X116178571Y-79785715D01*
X116178571Y-79428572D01*
X142750000Y-77142857D02*
X142678571Y-77000000D01*
X142678571Y-76785714D01*
X142750000Y-76571429D01*
X142892857Y-76428571D01*
X143035714Y-76357143D01*
X143321429Y-76285714D01*
X143535714Y-76285714D01*
X143821429Y-76357143D01*
X143964286Y-76428571D01*
X144107143Y-76571429D01*
X144178571Y-76785714D01*
X144178571Y-76928571D01*
X144107143Y-77142857D01*
X144035714Y-77214286D01*
X143535714Y-77214286D01*
X143535714Y-76928571D01*
X144178571Y-77857143D02*
X142678571Y-77857143D01*
X144178571Y-78714286D01*
X142678571Y-78714286D01*
X144178571Y-79428572D02*
X142678571Y-79428572D01*
X142678571Y-79785715D01*
X142750000Y-80000000D01*
X142892857Y-80142858D01*
X143035714Y-80214286D01*
X143321429Y-80285715D01*
X143535714Y-80285715D01*
X143821429Y-80214286D01*
X143964286Y-80142858D01*
X144107143Y-80000000D01*
X144178571Y-79785715D01*
X144178571Y-79428572D01*
X138607143Y-76357143D02*
X138607143Y-77500000D01*
X139178571Y-76928571D02*
X138035714Y-76928571D01*
X137678571Y-78928572D02*
X137678571Y-78214286D01*
X138392857Y-78142857D01*
X138321429Y-78214286D01*
X138250000Y-78357143D01*
X138250000Y-78714286D01*
X138321429Y-78857143D01*
X138392857Y-78928572D01*
X138535714Y-79000000D01*
X138892857Y-79000000D01*
X139035714Y-78928572D01*
X139107143Y-78857143D01*
X139178571Y-78714286D01*
X139178571Y-78357143D01*
X139107143Y-78214286D01*
X139035714Y-78142857D01*
X137678571Y-79428571D02*
X139178571Y-79928571D01*
X137678571Y-80428571D01*
X151607143Y-76357143D02*
X151607143Y-77500000D01*
X152178571Y-76928571D02*
X151035714Y-76928571D01*
X150678571Y-78928572D02*
X150678571Y-78214286D01*
X151392857Y-78142857D01*
X151321429Y-78214286D01*
X151250000Y-78357143D01*
X151250000Y-78714286D01*
X151321429Y-78857143D01*
X151392857Y-78928572D01*
X151535714Y-79000000D01*
X151892857Y-79000000D01*
X152035714Y-78928572D01*
X152107143Y-78857143D01*
X152178571Y-78714286D01*
X152178571Y-78357143D01*
X152107143Y-78214286D01*
X152035714Y-78142857D01*
X150678571Y-79428571D02*
X152178571Y-79928571D01*
X150678571Y-80428571D01*
X154678571Y-77000000D02*
X155678571Y-77000000D01*
X154678571Y-76357143D02*
X155464286Y-76357143D01*
X155607143Y-76428571D01*
X155678571Y-76571429D01*
X155678571Y-76785714D01*
X155607143Y-76928571D01*
X155535714Y-77000000D01*
X155607143Y-77642857D02*
X155678571Y-77785714D01*
X155678571Y-78071429D01*
X155607143Y-78214286D01*
X155464286Y-78285714D01*
X155392857Y-78285714D01*
X155250000Y-78214286D01*
X155178571Y-78071429D01*
X155178571Y-77857143D01*
X155107143Y-77714286D01*
X154964286Y-77642857D01*
X154892857Y-77642857D01*
X154750000Y-77714286D01*
X154678571Y-77857143D01*
X154678571Y-78071429D01*
X154750000Y-78214286D01*
X155678571Y-78928572D02*
X154678571Y-78928572D01*
X154964286Y-78928572D02*
X154821429Y-79000000D01*
X154750000Y-79071429D01*
X154678571Y-79214286D01*
X154678571Y-79357143D01*
X155678571Y-80642857D02*
X155678571Y-79785714D01*
X155678571Y-80214286D02*
X154178571Y-80214286D01*
X154392857Y-80071429D01*
X154535714Y-79928571D01*
X154607143Y-79785714D01*
X158178571Y-77000000D02*
X159178571Y-77000000D01*
X158178571Y-76357143D02*
X158964286Y-76357143D01*
X159107143Y-76428571D01*
X159178571Y-76571429D01*
X159178571Y-76785714D01*
X159107143Y-76928571D01*
X159035714Y-77000000D01*
X159107143Y-77642857D02*
X159178571Y-77785714D01*
X159178571Y-78071429D01*
X159107143Y-78214286D01*
X158964286Y-78285714D01*
X158892857Y-78285714D01*
X158750000Y-78214286D01*
X158678571Y-78071429D01*
X158678571Y-77857143D01*
X158607143Y-77714286D01*
X158464286Y-77642857D01*
X158392857Y-77642857D01*
X158250000Y-77714286D01*
X158178571Y-77857143D01*
X158178571Y-78071429D01*
X158250000Y-78214286D01*
X159178571Y-78928572D02*
X158178571Y-78928572D01*
X158464286Y-78928572D02*
X158321429Y-79000000D01*
X158250000Y-79071429D01*
X158178571Y-79214286D01*
X158178571Y-79357143D01*
X157821429Y-79785714D02*
X157750000Y-79857143D01*
X157678571Y-80000000D01*
X157678571Y-80357143D01*
X157750000Y-80500000D01*
X157821429Y-80571429D01*
X157964286Y-80642857D01*
X158107143Y-80642857D01*
X158321429Y-80571429D01*
X159178571Y-79714286D01*
X159178571Y-80642857D01*
D12*
X133297619Y-96904762D02*
X133250000Y-96809524D01*
X133154762Y-96714286D01*
X133011905Y-96571429D01*
X132964286Y-96476190D01*
X132964286Y-96380952D01*
X133202381Y-96428571D02*
X133154762Y-96333333D01*
X133059524Y-96238095D01*
X132869048Y-96190476D01*
X132535714Y-96190476D01*
X132345238Y-96238095D01*
X132250000Y-96333333D01*
X132202381Y-96428571D01*
X132202381Y-96619048D01*
X132250000Y-96714286D01*
X132345238Y-96809524D01*
X132535714Y-96857143D01*
X132869048Y-96857143D01*
X133059524Y-96809524D01*
X133154762Y-96714286D01*
X133202381Y-96619048D01*
X133202381Y-96428571D01*
X133202381Y-97809524D02*
X133202381Y-97238095D01*
X133202381Y-97523809D02*
X132202381Y-97523809D01*
X132345238Y-97428571D01*
X132440476Y-97333333D01*
X132488095Y-97238095D01*
M02*
