G04 #@! TF.FileFunction,Soldermask,Bot*
%FSLAX46Y46*%
G04 Gerber Fmt 4.6, Leading zero omitted, Abs format (unit mm)*
G04 Created by KiCad (PCBNEW 4.0.5+dfsg1-4) date Sat Aug 26 21:12:24 2017*
%MOMM*%
%LPD*%
G01*
G04 APERTURE LIST*
%ADD10C,0.100000*%
%ADD11C,3.100000*%
%ADD12C,3.600000*%
%ADD13C,1.900000*%
%ADD14O,2.900000X1.900000*%
%ADD15R,2.900000X1.900000*%
%ADD16R,9.400000X9.900000*%
%ADD17R,4.400000X1.900000*%
%ADD18R,1.900000X2.900000*%
%ADD19O,1.900000X2.900000*%
%ADD20R,2.400000X3.400000*%
%ADD21O,2.400000X3.400000*%
%ADD22C,9.400000*%
G04 APERTURE END LIST*
D10*
D11*
X124745000Y-119400000D03*
X109245000Y-119400000D03*
D12*
X122710000Y-116350000D03*
D13*
X112550000Y-110000000D03*
X115090000Y-110000000D03*
X117630000Y-110000000D03*
X120170000Y-110000000D03*
X121440000Y-107460000D03*
X118900000Y-107460000D03*
X116360000Y-107460000D03*
X113820000Y-107460000D03*
D12*
X111280000Y-116350000D03*
D13*
X104500000Y-95000000D03*
X102500000Y-95000000D03*
X100500000Y-95000000D03*
X98500000Y-95000000D03*
X104500000Y-93000000D03*
X102500000Y-93000000D03*
X100500000Y-93000000D03*
X98500000Y-93000000D03*
X104500000Y-91000000D03*
X102500000Y-91000000D03*
X100500000Y-91000000D03*
X98500000Y-91000000D03*
X104500000Y-89000000D03*
X102500000Y-89000000D03*
X100500000Y-89000000D03*
D14*
X164380000Y-117780000D03*
D15*
X179620000Y-117780000D03*
D14*
X164380000Y-115240000D03*
X179620000Y-115240000D03*
X164380000Y-112700000D03*
X179620000Y-112700000D03*
X164380000Y-110160000D03*
X179620000Y-110160000D03*
X164380000Y-107620000D03*
X179620000Y-107620000D03*
X164380000Y-105080000D03*
X179620000Y-105080000D03*
X164380000Y-102540000D03*
X179620000Y-102540000D03*
X164380000Y-100000000D03*
X179620000Y-100000000D03*
X164380000Y-97460000D03*
X179620000Y-97460000D03*
X164380000Y-94920000D03*
X179620000Y-94920000D03*
X164380000Y-92380000D03*
X179620000Y-92380000D03*
X164380000Y-89840000D03*
X179620000Y-89840000D03*
X164380000Y-87300000D03*
X179620000Y-87300000D03*
X164380000Y-84760000D03*
X179620000Y-84760000D03*
X164380000Y-82220000D03*
X179620000Y-82220000D03*
D15*
X190670000Y-90610000D03*
D14*
X190670000Y-93150000D03*
X190670000Y-95690000D03*
X190670000Y-98230000D03*
X190670000Y-100770000D03*
X190670000Y-103310000D03*
X190670000Y-105850000D03*
X187330000Y-105850000D03*
X187330000Y-103310000D03*
X187330000Y-100770000D03*
X187330000Y-98230000D03*
X187330000Y-95690000D03*
X187330000Y-93150000D03*
X187330000Y-90610000D03*
D16*
X126000000Y-97000000D03*
D17*
X116000000Y-99540000D03*
X116000000Y-94460000D03*
D18*
X157810000Y-118000000D03*
D19*
X155270000Y-118000000D03*
X152730000Y-118000000D03*
X150190000Y-118000000D03*
D20*
X110460000Y-87000000D03*
D21*
X115540000Y-87000000D03*
D20*
X124460000Y-87000000D03*
D21*
X129540000Y-87000000D03*
D20*
X138460000Y-87000000D03*
D21*
X143540000Y-87000000D03*
D18*
X151500000Y-83000000D03*
D19*
X155000000Y-83000000D03*
X158500000Y-83000000D03*
D11*
X144745000Y-119400000D03*
X129245000Y-119400000D03*
D12*
X142710000Y-116350000D03*
D13*
X132550000Y-110000000D03*
X135090000Y-110000000D03*
X137630000Y-110000000D03*
X140170000Y-110000000D03*
X141440000Y-107460000D03*
X138900000Y-107460000D03*
X136360000Y-107460000D03*
X133820000Y-107460000D03*
D12*
X131280000Y-116350000D03*
D22*
X189000000Y-119000000D03*
X101000000Y-119000000D03*
X101000000Y-81000000D03*
X189000000Y-81000000D03*
D13*
X98500000Y-89000000D03*
M02*
